<svg viewBox="0 0 21 21" xmlns="http://www.w3.org/2000/svg"><g fill="#4A4A4A" fill-rule="evenodd"><path d="M16.534 12.832l-.745.745c-.05.05-.106.105-.166.144-.327.315-.702.57-1.096.766-1.03.51-2.223.656-3.388.43-.302-.05-.588-.128-.87-.23-.262-.092-.52-.2-.768-.337-.575-.287-1.114-.675-1.6-1.16-.484-.486-.873-1.025-1.158-1.6l1.365-1.364c.094-.094.194-.174.307-.24.16.61.49 1.207.986 1.704.496.497 1.095.825 1.705.986.266.066.536.105.807.108.28.008.55-.02.825-.085.513-.128 1-.382 1.394-.777l.825-.825.613-.614.58-.58 1.48-1.48c1.24-1.24 1.135-3.363-.233-4.73-1.367-1.37-3.49-1.473-4.73-.234l-1.48 1.48c-.97-.33-1.968-.46-2.93-.38l2.754-2.754c2.07-2.07 5.602-1.897 7.886.387 2.285 2.284 2.457 5.817.388 7.886l-2.753 2.753z" id="Shape"/><path d="M9.055 8.432c-.284-.003-.56.02-.83.09-.518.12-.998.382-1.388.77l-.83.83-.61.61-.574.576-1.485 1.485c-1.24 1.24-1.135 3.362.233 4.73 1.368 1.368 3.493 1.472 4.732.233l1.484-1.484c.96.33 1.958.458 2.925.385L9.957 19.41c-2.07 2.07-5.6 1.897-7.885-.387-2.283-2.284-2.457-5.816-.387-7.886l2.754-2.754.745-.745c.055-.055.105-.105.166-.145.325-.313.696-.562 1.09-.758 1.034-.516 2.228-.66 3.388-.432.306.047.594.124.876.227.26.092.52.2.767.337.574.284 1.112.673 1.598 1.16.485.484.873 1.022 1.16 1.597l-1.365 1.365c-.095.093-.2.178-.31.24-.155-.615-.488-1.208-.985-1.705-.496-.496-1.09-.83-1.705-.986-.266-.066-.535-.105-.808-.108z"/></g></svg>
