<?xml version="1.0" encoding="UTF-8" standalone="no"?>
<!-- Created with Inkscape (http://www.inkscape.org/) -->

<svg
   xmlns:dc="http://purl.org/dc/elements/1.1/"
   xmlns:cc="http://creativecommons.org/ns#"
   xmlns:rdf="http://www.w3.org/1999/02/22-rdf-syntax-ns#"
   xmlns:svg="http://www.w3.org/2000/svg"
   xmlns="http://www.w3.org/2000/svg"
   xmlns:sodipodi="http://sodipodi.sourceforge.net/DTD/sodipodi-0.dtd"
   xmlns:inkscape="http://www.inkscape.org/namespaces/inkscape"
   id="svg2"
   version="1.1"
   inkscape:version="0.48.5 r10040"
   width="87.5"
   height="106.25"
   xml:space="preserve"
   sodipodi:docname="Vector Smart Object.ai"><metadata
     id="metadata8"><rdf:RDF><cc:Work
         rdf:about=""><dc:format>image/svg+xml</dc:format><dc:type
           rdf:resource="http://purl.org/dc/dcmitype/StillImage" /><dc:title></dc:title></cc:Work></rdf:RDF></metadata><defs
     id="defs6"><clipPath
       clipPathUnits="userSpaceOnUse"
       id="clipPath16"><path
         d="M 0,85 70,85 70,0 0,0 0,85 z"
         id="path18" /></clipPath></defs><sodipodi:namedview
     pagecolor="#ffffff"
     bordercolor="#666666"
     borderopacity="1"
     objecttolerance="10"
     gridtolerance="10"
     guidetolerance="10"
     inkscape:pageopacity="0"
     inkscape:pageshadow="2"
     inkscape:window-width="892"
     inkscape:window-height="678"
     id="namedview4"
     showgrid="false"
     inkscape:zoom="2.2211765"
     inkscape:cx="43.75"
     inkscape:cy="53.125"
     inkscape:window-x="0"
     inkscape:window-y="0"
     inkscape:window-maximized="0"
     inkscape:current-layer="g10" /><g
     id="g10"
     inkscape:groupmode="layer"
     inkscape:label="Vector Smart Object"
     transform="matrix(1.25,0,0,-1.25,0,106.25)"><g
       id="g12"><g
         id="g14"
         clip-path="url(#clipPath16)"><g
           id="g20"
           transform="translate(25,64)"><path
             d="M 0,0 C 0,7.225 3.986,11 10,11 16.014,11 20,7.225 20,0 l 0,-9 -20,0 0,9 z m 39,-9 -9,0 0,7 C 30,12.486 23.327,21 10,21 -3.327,21 -10,12.486 -10,-2 l 0,-7 -10,0 c -2.762,0 -5,-3.238 -5,-6 l 0,-39 c 0,-2.75 2.142,-5.691 4.759,-6.535 l 5.982,-1.93 C -11.642,-63.31 -7.25,-64 -4.5,-64 l 29,0 c 2.75,0 7.142,0.69 9.759,1.535 l 5.982,1.93 C 42.858,-59.691 45,-56.75 45,-54 l 0,39 c 0,2.762 -3.238,6 -6,6"
             style="fill:#ffffff;fill-opacity:1;fill-rule:nonzero;stroke:none"
             id="path22" /></g></g></g></g></svg>