<svg width="37" height="38" viewBox="0 0 37 38" xmlns="http://www.w3.org/2000/svg"><g fill="#979797" fill-rule="evenodd"><path d="M.61 13.823c0-.55.455-.998.998-.998h33.888c.55 0 .997.45.997.998v22.704c0 .552-.454 1-.997 1H1.608c-.55 0-.997-.45-.997-1V13.823zm19.676 10.78c.76-.56 1.256-1.477 1.256-2.515 0-1.706-1.338-3.088-2.99-3.088-1.65 0-2.99 1.382-2.99 3.088 0 1.038.496 1.956 1.256 2.516l-1.256 6.747h5.98l-1.256-6.746z"/><path d="M9.582 25.175V9.728c0-5.11 4.026-9.254 8.97-9.254 4.954 0 8.97 4.142 8.97 9.254v18.544c0 5.11-4.026 9.254-8.97 9.254-4.814 0-8.742-3.91-8.96-8.822h3.423c.214 2.96 2.61 5.293 5.537 5.293 3.062 0 5.553-2.568 5.553-5.725V9.728c0-3.162-2.485-5.725-5.553-5.725C15.49 4.003 13 6.57 13 9.728v15.447H9.58z"/></g></svg>